<svg width="72" height="72" viewBox="0 0 72 72" fill="none" xmlns="http://www.w3.org/2000/svg">
<rect width="72" height="72" rx="6" fill="url(#paint0_linear)"/>
<rect x="13.4672" y="16.9648" width="30.8615" height="5.57092" rx="0.590633" fill="white" fill-opacity="0.85"/>
<path fill-rule="evenodd" clip-rule="evenodd" d="M16.5175 22.5352H41.2438V40.0803H38.3457C36.5516 40.0803 35.0972 41.5347 35.0972 43.3288V57.8929H17.1081C16.7819 57.8929 16.5175 57.6285 16.5175 57.3023V22.5352ZM20.9632 25.7368C20.6363 25.7368 20.3712 26.0019 20.3712 26.3288V36.9621C20.3712 37.289 20.6363 37.5541 20.9632 37.5541H36.8327C37.1597 37.5541 37.4247 37.289 37.4247 36.9621V26.3288C37.4247 26.0019 37.1597 25.7368 36.8327 25.7368H20.9632Z" fill="url(#paint1_linear)"/>
<rect x="20.3712" y="25.7344" width="17.0535" height="11.8172" rx="0.591974" fill="url(#paint2_linear)"/>
<path d="M38.3456 40.0801C36.5516 40.0801 35.0972 41.5345 35.0972 43.3286V57.8928H40.389V43.2323C40.389 41.4914 41.8003 40.0801 43.5412 40.0801C43.6202 40.0801 43.6986 40.083 43.7761 40.0887V40.0801H43.5412H38.3456Z" fill="white" fill-opacity="0.9"/>
<rect x="59.3" y="17.4873" width="4.07829" height="33.6044" rx="2.03914" transform="rotate(30.353 59.3 17.4873)" fill="white" fill-opacity="0.8"/>
<path fill-rule="evenodd" clip-rule="evenodd" d="M45.6141 40.8583C45.06 40.3743 44.3349 40.0811 43.5414 40.0811C41.8004 40.0811 40.3892 41.4923 40.3892 43.2333V57.8938H46.1029C46.4291 57.8938 46.6936 57.6293 46.6936 57.3032V47.0401C46.0703 47.8114 44.9602 48.0323 44.0785 47.516C43.1067 46.9469 42.7802 45.6977 43.3493 44.7259L45.6141 40.8583Z" fill="white" fill-opacity="0.7"/>
<mask id="mask0" mask-type="alpha" maskUnits="userSpaceOnUse" x="43" y="18" width="20" height="30">
<rect x="59.3" y="17.4873" width="4.07829" height="33.6044" rx="2.03914" transform="rotate(30.353 59.3 17.4873)" fill="white" fill-opacity="0.8"/>
</mask>
<g mask="url(#mask0)">
<path d="M56.6785 20.7393L60.7006 24.6748" stroke="white" stroke-width="1.7719"/>
<path d="M53.6049 25.9864L57.627 29.9219" stroke="white" stroke-width="1.7719"/>
<path d="M50.4262 31.0489L54.4483 34.9844" stroke="white" stroke-width="1.7719"/>
<path d="M47.4584 36.2803L51.4805 40.2159" stroke="white" stroke-width="1.7719"/>
</g>
<defs>
<linearGradient id="paint0_linear" x1="112.5" y1="179" x2="21.5" y2="-10.5" gradientUnits="userSpaceOnUse">
<stop stop-color="#040E47"/>
<stop offset="1" stop-color="#7622A8"/>
</linearGradient>
<linearGradient id="paint1_linear" x1="18.5522" y1="21.219" x2="41.9051" y2="85.5668" gradientUnits="userSpaceOnUse">
<stop stop-color="white"/>
<stop offset="1" stop-color="white" stop-opacity="0"/>
</linearGradient>
<linearGradient id="paint2_linear" x1="-14.4866" y1="-12.7893" x2="56.5511" y2="59.678" gradientUnits="userSpaceOnUse">
<stop stop-color="white"/>
<stop offset="1" stop-color="white" stop-opacity="0"/>
</linearGradient>
</defs>
</svg>
